<?xml version="1.0" standalone="no"?>
<!DOCTYPE svg PUBLIC "-//W3C//DTD SVG 20010904//EN"
 "http://www.w3.org/TR/2001/REC-SVG-20010904/DTD/svg10.dtd">
<svg version="1.0" xmlns="http://www.w3.org/2000/svg"
 width="1072.000000pt" height="1072.000000pt" viewBox="0 0 1072.000000 1072.000000"
 preserveAspectRatio="xMidYMid meet">
<metadata>
Created by potrace 1.11, written by Peter Selinger 2001-2013
</metadata>
<g transform="translate(0.000000,1072.000000) scale(0.100000,-0.100000)"
fill="#000000" stroke="none">
<path d="M8068 10715 c-1 -1 -30 -6 -63 -9 -33 -4 -67 -9 -75 -11 -8 -2 -33
-6 -55 -10 -56 -8 -236 -55 -260 -68 -11 -6 -24 -12 -30 -12 -34 -5 -75 -19
-75 -26 0 -5 -7 -9 -16 -9 -18 0 -207 -91 -212 -102 -2 -5 -8 -8 -13 -8 -8 0
-142 -75 -179 -100 -8 -6 -23 -13 -32 -16 -10 -4 -18 -9 -18 -13 0 -4 -16 -13
-35 -20 -19 -7 -35 -17 -35 -22 0 -5 -6 -9 -13 -9 -7 0 -36 -16 -66 -35 -29
-19 -56 -35 -61 -35 -4 0 -13 -7 -20 -15 -7 -9 -15 -13 -17 -11 -3 3 -35 -14
-71 -38 -37 -23 -74 -45 -82 -49 -8 -4 -37 -20 -65 -37 -27 -17 -66 -38 -85
-48 -19 -9 -37 -20 -40 -23 -3 -4 -21 -16 -40 -27 -19 -11 -49 -28 -66 -38
l-31 -18 0 -3648 0 -3648 26 0 c30 -1 3795 -1 3859 0 l42 0 -3 3168 c-1 1742
-6 3178 -9 3192 -4 14 -12 55 -18 93 -13 84 -65 282 -88 340 -7 16 -12 32 -12
37 0 5 -9 25 -20 45 -11 19 -18 35 -15 35 7 0 -76 161 -125 240 -109 177 -249
342 -396 466 -25 22 -51 44 -57 49 -178 151 -551 341 -732 372 -16 3 -32 8
-35 11 -3 4 -9 7 -15 7 -5 0 -50 8 -100 17 -49 9 -106 20 -125 23 -37 7 -416
16 -422 10z"/>
<path d="M4570 8890 c-14 -11 -29 -20 -34 -20 -5 0 -37 -18 -72 -40 -35 -22
-68 -40 -74 -40 -6 0 -13 -7 -16 -15 -4 -8 -10 -13 -14 -10 -4 3 -19 -5 -34
-16 -14 -11 -26 -17 -26 -12 0 4 -4 4 -8 -2 -4 -5 -18 -16 -32 -24 -14 -8 -85
-50 -159 -93 -73 -43 -137 -78 -142 -78 -5 0 -9 -4 -9 -10 0 -5 -4 -10 -9 -10
-5 0 -55 -27 -111 -60 -56 -33 -104 -60 -108 -60 -3 0 -13 -6 -21 -14 -9 -7
-41 -27 -71 -43 -73 -40 -134 -76 -140 -83 -3 -3 -24 -14 -47 -25 -24 -11 -43
-23 -43 -27 0 -5 -6 -8 -14 -8 -7 0 -19 -7 -26 -15 -7 -8 -16 -12 -21 -9 -5 3
-9 2 -9 -3 0 -4 -26 -21 -58 -38 -31 -16 -59 -33 -62 -36 -3 -3 -40 -25 -82
-48 -43 -24 -80 -47 -84 -52 -3 -5 -10 -7 -15 -4 -5 4 -9 1 -9 -4 0 -6 -7 -11
-15 -11 -8 0 -15 -4 -15 -10 0 -5 -7 -10 -15 -10 -8 0 -15 -5 -15 -10 0 -6 -4
-9 -8 -8 -5 2 -63 -30 -130 -69 -67 -40 -127 -73 -132 -73 -6 0 -10 -4 -10
-10 0 -5 -4 -10 -10 -10 -5 0 -70 -35 -142 -79 -73 -43 -153 -90 -178 -104
-98 -56 -187 -108 -225 -132 -22 -14 -47 -28 -55 -32 -8 -4 -64 -35 -123 -70
-60 -35 -112 -63 -118 -63 -5 0 -9 -3 -9 -8 0 -4 -8 -12 -19 -17 -10 -6 -36
-20 -57 -31 -22 -12 -43 -22 -48 -22 -5 0 -12 -4 -15 -9 -7 -11 -83 -57 -177
-109 -38 -21 -73 -42 -79 -46 -5 -5 -38 -26 -72 -47 -35 -21 -60 -41 -56 -44
3 -4 0 -7 -8 -7 -8 0 -28 -13 -46 -28 -18 -15 -53 -45 -79 -67 -42 -35 -179
-171 -210 -208 -6 -8 -37 -47 -68 -88 -31 -41 -61 -79 -66 -86 -6 -7 -10 -16
-10 -21 0 -5 -9 -17 -20 -27 -11 -10 -18 -20 -16 -22 2 -2 -11 -28 -30 -56
-19 -29 -37 -62 -40 -74 -4 -13 -10 -23 -15 -23 -5 0 -8 -3 -7 -7 1 -5 -9 -30
-21 -58 -19 -43 -39 -91 -77 -190 -9 -24 -8 -22 -18 -65 -5 -19 -13 -41 -18
-47 -6 -7 -8 -13 -5 -13 3 0 -1 -24 -9 -52 -8 -29 -17 -71 -19 -93 -3 -22 -7
-47 -10 -55 -19 -68 -27 -445 -12 -555 4 -27 10 -68 13 -90 33 -244 154 -552
304 -776 67 -101 160 -219 172 -219 4 0 8 -7 8 -16 0 -8 4 -12 10 -9 5 3 10 1
10 -5 0 -15 97 -108 213 -205 48 -40 97 -75 105 -75 5 0 17 -9 27 -20 10 -11
24 -20 32 -20 7 0 13 -4 13 -10 0 -5 4 -10 9 -10 8 0 188 -104 241 -140 14 -9
54 -32 90 -51 36 -18 67 -36 70 -39 3 -3 75 -46 160 -95 85 -48 178 -103 207
-121 29 -18 83 -50 120 -70 37 -21 108 -62 157 -91 49 -29 92 -53 96 -53 5 0
10 -3 12 -7 2 -5 24 -19 51 -33 26 -13 47 -28 47 -33 0 -4 4 -6 9 -2 5 3 16
-2 24 -10 9 -8 17 -15 20 -15 6 0 256 -147 271 -159 7 -6 16 -8 19 -4 4 3 7 1
7 -5 0 -7 4 -12 9 -12 5 0 56 -28 113 -61 56 -34 117 -70 133 -79 17 -10 125
-72 240 -140 116 -67 230 -134 255 -148 25 -14 62 -36 82 -49 21 -12 42 -23
48 -23 5 0 10 -4 10 -10 0 -5 4 -10 9 -10 5 0 70 -36 145 -80 76 -44 141 -80
146 -80 6 0 10 -3 10 -8 0 -4 21 -18 48 -32 26 -14 87 -49 136 -78 48 -29 117
-69 152 -88 l64 -35 0 3550 c0 1953 -3 3551 -7 3551 -5 0 -19 -9 -33 -20z"/>
<path d="M6680 600 c0 -6 6 -10 14 -10 8 0 21 -6 28 -14 8 -7 24 -17 36 -20
12 -4 22 -12 22 -17 0 -5 6 -9 14 -9 8 0 22 -7 30 -16 9 -8 16 -13 16 -9 0 3
13 -3 29 -14 16 -12 34 -21 40 -21 6 0 11 -4 11 -10 0 -5 7 -10 15 -10 8 0 15
-4 15 -10 0 -5 6 -10 13 -10 8 0 42 -18 75 -40 34 -22 62 -37 62 -34 0 3 7 -2
16 -10 8 -9 22 -16 30 -16 8 0 14 -4 14 -8 0 -4 12 -13 28 -20 15 -7 45 -23
67 -36 101 -58 137 -76 150 -76 8 0 15 -4 15 -10 0 -5 7 -10 15 -10 8 0 23 -4
33 -10 14 -8 57 -27 82 -35 3 -1 12 -4 20 -8 87 -35 316 -89 440 -104 83 -10
367 -10 445 0 74 9 162 23 200 33 6 1 21 4 35 7 45 10 142 37 151 43 5 3 18 7
29 9 57 11 383 160 400 183 3 4 22 16 43 27 20 11 37 23 37 27 0 5 5 8 11 8 6
0 24 10 40 23 97 74 161 128 216 179 l61 58 -1499 0 c-986 0 -1499 -4 -1499
-10z"/>
</g>
</svg>
