<?xml version="1.0"?>
<svg xmlns="http://www.w3.org/2000/svg" viewBox="0 0 64 64" width="512" height="512"><g id="Calendar-2" data-name="Calendar"><path d="M33,32V8H31V31H16v2H32A1,1,0,0,0,33,32Z"/><path d="M62,32A30,30,0,1,0,30.553,61.959v0A3,3,0,0,0,31,62H57a3,3,0,0,0,3-3V42.758A29.588,29.588,0,0,0,62,32ZM4,32a28,28,0,1,1,55.492,5.333A3,3,0,0,0,57,36H54V34H52v2H48V34H46v2H42V34H40v2H36V34H34v2H31a3,3,0,0,0-3,3V59a2.972,2.972,0,0,0,.1.722A27.935,27.935,0,0,1,4,32Zm32,8V38h4v2h2V38h4v2h2V38h4v2h2V38h3a1,1,0,0,1,1,1v3H30V39a1,1,0,0,1,1-1h3v2Zm6,8V44h4v4Zm4,2v4H42V50Zm-6-6v4H36V44Zm8,0h4v4H48ZM30,44h4v4H30Zm0,6h4v4H30Zm6,0h4v4H36Zm4,6v4H36V56Zm2,0h4v4H42Zm6,0h4v4H48Zm0-2V50h4v4Zm6-4h4v4H54Zm0-2V44h4v4ZM30,59V56h4v4H31A1,1,0,0,1,30,59Zm27,1H54V56h4v3A1,1,0,0,1,57,60Z"/></g></svg>
