<svg xmlns="http://www.w3.org/2000/svg" width="122.17" height="134.224" viewBox="0 0 122.17 134.224"><g transform="translate(-1192.178 -540.992)"><g transform="translate(1194.196 542.505)" fill="rgba(255,251,251,0)"><path d="M 45.67905426025391 103.1385803222656 L 12.40514469146729 83.73997497558594 C 9.195999145507813 81.86911773681641 6.545769691467285 79.21976470947266 4.740894317626953 76.07833099365234 C 2.935998678207397 72.93691253662109 1.981998682022095 69.31297302246094 1.981998682022095 65.59830474853516 C 1.981998682022095 61.88361740112305 2.935998678207397 58.25968170166016 4.740894317626953 55.11824417114258 C 6.545769691467285 51.97682952880859 9.195999145507813 49.32749557495117 12.4050817489624 47.45666122436523 L 45.67818450927734 28.05854034423828 L 45.67905426025391 103.1385803222656 Z M 116.1518096923828 96.05843353271484 L 74.99470520019531 96.05759429931641 L 74.99470520019531 10.9677152633667 L 84.57539367675781 5.38153600692749 C 87.87101745605469 3.460306882858276 91.41609954833984 2.486077547073364 95.11191558837891 2.486077547073364 C 97.81712341308594 2.486077547073364 100.4785385131836 3.011869192123413 103.0221862792969 4.048827648162842 C 105.538459777832 5.074702739715576 107.8055419921875 6.544536113739014 109.7603759765625 8.417514801025391 C 113.8819580078125 12.36651515960693 116.1518096923828 17.73151588439941 116.1518096923828 23.52422332763672 L 116.1518096923828 96.05843353271484 Z" stroke="none"/><path d="M 41.6789665222168 96.17639923095703 L 41.67825698852539 35.02061462402344 L 14.41966915130615 50.91230392456055 C 9.136269569396973 53.99240112304688 5.98199462890625 59.48250198364258 5.98199462890625 65.59830474853516 C 5.98199462890625 71.71408081054688 9.136269569396973 77.20417785644531 14.41976928710938 80.28435516357422 L 41.6789665222168 96.17639923095703 M 112.1517944335938 92.05834197998047 L 112.1517944335938 23.52420234680176 C 112.1517944335938 18.8324031829834 110.3197174072266 14.4931526184082 106.9930725097656 11.30577754974365 C 105.4037475585938 9.782978057861328 103.5596694946289 8.587602615356445 101.5121459960938 7.752852439880371 C 99.45024108886719 6.912277698516846 97.29692077636719 6.486077785491943 95.11192321777344 6.486077785491943 C 92.13327026367188 6.486077785491943 89.26596832275391 7.277152538299561 86.59019470214844 8.837027549743652 L 78.99469757080078 13.26571655273438 L 78.99469757080078 92.05766296386719 L 112.1517944335938 92.05834197998047 M 95.11192321777344 132.7105255126953 C 90.69896697998047 132.7105712890625 86.47609710693359 131.5532073974609 82.56059265136719 129.2705993652344 L 75.39444732666016 125.0927505493164 L 113.1089935302734 125.0910034179688 C 108.3734436035156 129.9338836669922 101.8134918212891 132.7104797363281 95.11192321777344 132.7105255126953 Z M 113.3622436523438 124.8286514282227 L 113.3608169555664 124.8273010253906 C 117.3577194213867 120.620475769043 119.7529220581055 115.0794525146484 120.1052474975586 109.2249526977539 C 119.9404907226563 112.0552749633789 119.3130187988281 114.7909240722656 118.2422409057617 117.3560791015625 C 117.0874176025391 120.1225280761719 115.4455718994141 122.6366500854492 113.3622436523438 124.8286514282227 Z M 49.67909622192383 110.1007537841797 L 49.67759323120117 110.0998764038086 L 10.39051914215088 87.19560241699219 C 2.620694637298584 82.66592407226563 -2.01800537109375 74.59215545654297 -2.01800537109375 65.59830474853516 C -2.01800537109375 56.60440444946289 2.620694637298584 48.5306510925293 10.39051914215088 44.00100326538086 L 49.67809295654297 21.0964527130127 L 49.67909622192383 107.2476043701172 L 49.67909622192383 110.0990295410156 L 49.67909622192383 110.1007537841797 Z M 120.1517944335938 100.0585021972656 L 120.1507949829102 100.0585021972656 L 70.99469757080078 100.057502746582 L 70.99469757080078 8.669702529907227 L 82.56059265136719 1.926002621650696 C 86.47604370117188 -0.3565473556518555 90.69892120361328 -1.513922333717346 95.11192321777344 -1.513922333717346 C 98.33739471435547 -1.513922333717346 101.5068435668945 -0.8885473608970642 104.5321960449219 0.3448026478290558 C 107.5172729492188 1.561777591705322 110.2073440551758 3.306077718734741 112.5276947021484 5.529277801513672 C 117.4441680908203 10.23990249633789 120.1517944335938 16.63062858581543 120.1517944335938 23.52420234680176 L 120.1517944335938 100.057502746582 L 120.1517944335938 100.0585021972656 Z" stroke="none" fill="#fff"/></g></g></svg>